<?xml version="1.0" encoding="utf-8"?>
<!-- Generator: Adobe Illustrator 23.1.0, SVG Export Plug-In . SVG Version: 6.00 Build 0)  -->
<svg version="1.1" id="Capa_1" xmlns="http://www.w3.org/2000/svg" xmlns:xlink="http://www.w3.org/1999/xlink" x="0px" y="0px"
	 viewBox="0 0 1085.1 1150.7" style="enable-background:new 0 0 1085.1 1150.7;" xml:space="preserve">
<style type="text/css">
	.st0{fill:#F4A490;}
</style>
<g>
	<g>
		<g>
			<g>
				<g>
					<g>
						<g>
							<path class="st0" d="M275.8,172.2c-1-0.4-0.7-2,0.5-1.9c47.2,2.6,43.9-36.3,57-79.6c7.3-29.5,34.2-45,62.7-33
								c23,9.7,39.1,48.1,4,73c-0.9,0.6-2-0.4-1.4-1.3c10.2-16.9,4.5-38.6-14.3-41.2C346.6,82.8,352.3,204.7,275.8,172.2z"/>
						</g>
						<g>
							<path class="st0" d="M505.7,76c1,0.4,0.7,2-0.5,1.9c-47.2-2.6-43.9,36.3-57,79.6c-7.3,29.5-34.2,45-62.7,33
								c-23-9.7-39.1-48.1-4-73c0.9-0.6,2,0.4,1.4,1.3c-10.2,16.9-4.5,38.6,14.3,41.2C434.8,165.4,429.1,43.6,505.7,76z"/>
						</g>
					</g>
				</g>
				<g>
					<g>
						<g>
							<path class="st0" d="M420.9,295.2c-1-0.4-0.7-2,0.5-1.9c47.2,2.6,43.9-36.3,57-79.6c7.3-29.5,34.2-45,62.7-33
								c23,9.7,39.1,48.1,4,73c-0.9,0.6-2-0.4-1.4-1.3c10.2-16.9,4.5-38.6-14.3-41.2C491.7,205.8,497.4,327.6,420.9,295.2z"/>
						</g>
						<g>
							<path class="st0" d="M650.8,199c1,0.4,0.7,2-0.5,1.9c-47.2-2.6-43.9,36.3-57,79.6c-7.3,29.5-34.2,45-62.7,33
								c-23-9.7-39.1-48.1-4-73c0.9-0.6,2,0.4,1.4,1.3c-10.2,16.9-4.5,38.6,14.3,41.2C579.9,288.4,574.3,166.6,650.8,199z"/>
						</g>
					</g>
				</g>
				<g>
					<g>
						<g>
							<path class="st0" d="M518.6,118.6c-1-0.4-0.7-2,0.5-1.9c47.2,2.6,43.9-36.3,57-79.6c7.3-29.5,34.2-45,62.7-33
								c23,9.7,39.1,48.1,4,73c-0.9,0.6-2-0.4-1.4-1.3c10.2-16.9,4.5-38.6-14.3-41.2C589.4,29.2,595.1,151.1,518.6,118.6z"/>
						</g>
						<g>
							<path class="st0" d="M748.5,22.5c1,0.4,0.7,2-0.5,1.9c-47.2-2.6-43.9,36.3-57,79.6c-7.3,29.5-34.2,45-62.7,33
								c-23-9.7-39.1-48.1-4-73c0.9-0.6,2,0.4,1.4,1.3c-10.2,16.9-4.5,38.6,14.3,41.2C677.6,111.9,671.9-10,748.5,22.5z"/>
						</g>
					</g>
				</g>
				<g>
					<g>
						<g>
							<path class="st0" d="M579.4,410c-1-0.4-0.7-2,0.5-1.9c47.2,2.6,43.9-36.3,57-79.6c7.3-29.5,34.2-45,62.7-33
								c23,9.7,39.1,48.1,4,73c-0.9,0.6-2-0.4-1.4-1.3c10.2-16.9,4.5-38.6-14.3-41.2C650.3,320.6,655.9,442.4,579.4,410z"/>
						</g>
						<g>
							<path class="st0" d="M809.3,313.8c1,0.4,0.7,2-0.5,1.9c-47.2-2.6-43.9,36.3-57,79.6c-7.3,29.5-34.2,45-62.7,33
								c-23-9.7-39.1-48.1-4-73c0.9-0.6,2,0.4,1.4,1.3c-10.2,16.9-4.5,38.6,14.3,41.2C738.5,403.2,732.8,281.4,809.3,313.8z"/>
						</g>
					</g>
				</g>
				<g>
					<g>
						<g>
							<path class="st0" d="M334.9,471.7c-1-0.4-0.7-2,0.5-1.9c47.2,2.6,43.9-36.3,57-79.6c7.3-29.5,34.2-45,62.7-33
								c23,9.7,39.1,48.1,4,73c-0.9,0.6-2-0.4-1.4-1.3c10.2-16.9,4.5-38.6-14.3-41.2C405.7,382.3,411.4,504.2,334.9,471.7z"/>
						</g>
						<g>
							<path class="st0" d="M564.8,375.6c1,0.4,0.7,2-0.5,1.9c-47.2-2.6-43.9,36.3-57,79.6c-7.3,29.5-34.2,45-62.7,33
								c-23-9.7-39.1-48.1-4-73c0.9-0.6,2,0.4,1.4,1.3c-10.2,16.9-4.5,38.6,14.3,41.2C493.9,465,488.3,343.1,564.8,375.6z"/>
						</g>
					</g>
				</g>
				<g>
					<g>
						<g>
							<path class="st0" d="M489,588.5c-1-0.4-0.7-2,0.5-1.9c47.2,2.6,43.9-36.3,57-79.6c7.3-29.5,34.2-45,62.7-33
								c23,9.7,39.1,48.1,4,73c-0.9,0.6-2-0.4-1.4-1.3c10.2-16.9,4.5-38.6-14.3-41.2C559.8,499,565.5,620.9,489,588.5z"/>
						</g>
						<g>
							<path class="st0" d="M718.9,492.3c1,0.4,0.7,2-0.5,1.9c-47.2-2.6-43.9,36.3-57,79.6c-7.3,29.5-34.2,45-62.7,33
								c-23-9.7-39.1-48.1-4-73c0.9-0.6,2,0.4,1.4,1.3c-10.2,16.9-4.5,38.6,14.3,41.2C648.1,581.7,642.4,459.8,718.9,492.3z"/>
						</g>
					</g>
				</g>
				<g>
					<g>
						<g>
							<path class="st0" d="M854.6,313.3c-1-0.4-0.7-2,0.5-1.9c47.2,2.6,43.9-36.3,57-79.6c7.3-29.5,34.2-45,62.7-33
								c23,9.7,39.1,48.1,4,73c-0.9,0.6-2-0.4-1.4-1.3c10.2-16.9,4.5-38.6-14.3-41.2C925.4,223.8,931.1,345.7,854.6,313.3z"/>
						</g>
						<g>
							<path class="st0" d="M1084.5,217.1c1,0.4,0.7,2-0.5,1.9c-47.2-2.6-43.9,36.3-57,79.6c-7.3,29.5-34.2,45-62.7,33
								c-23-9.7-39.1-48.1-4-73c0.9-0.6,2,0.4,1.4,1.3c-10.2,16.9-4.5,38.6,14.3,41.2C1013.6,306.5,1008,184.6,1084.5,217.1z"/>
						</g>
					</g>
				</g>
				<g>
					<g>
						<g>
							<path class="st0" d="M772.9,489c-1-0.4-0.7-2,0.5-1.9c47.2,2.6,43.9-36.3,57-79.6c7.3-29.5,34.2-45,62.7-33
								c23,9.7,39.1,48.1,4,73c-0.9,0.6-2-0.4-1.4-1.3c10.2-16.9,4.5-38.6-14.3-41.2C843.8,399.6,849.4,521.4,772.9,489z"/>
						</g>
						<g>
							<path class="st0" d="M1002.8,392.8c1,0.4,0.7,2-0.5,1.9c-47.2-2.6-43.9,36.3-57,79.6c-7.3,29.5-34.2,45-62.7,33
								c-23-9.7-39.1-48.1-4-73c0.9-0.6,2,0.4,1.4,1.3c-10.2,16.9-4.5,38.6,14.3,41.2C932,482.2,926.3,360.4,1002.8,392.8z"/>
						</g>
					</g>
				</g>
			</g>
		</g>
		<g>
			<g>
				<g>
					<g>
						<g>
							<path class="st0" d="M0.6,712c-1-0.4-0.7-2,0.5-1.9c47.2,2.6,43.9-36.3,57-79.6c7.3-29.5,34.2-45,62.7-33
								c23,9.7,39.1,48.1,4,73c-0.9,0.6-2-0.4-1.4-1.3c10.2-16.9,4.5-38.6-14.3-41.2C71.5,622.5,77.1,744.4,0.6,712z"/>
						</g>
						<g>
							<path class="st0" d="M230.5,615.8c1,0.4,0.7,2-0.5,1.9c-47.2-2.6-43.9,36.3-57,79.6c-7.3,29.5-34.2,45-62.7,33
								c-23-9.7-39.1-48.1-4-73c0.9-0.6,2,0.4,1.4,1.3c-10.2,16.9-4.5,38.6,14.3,41.2C159.7,705.2,154,583.3,230.5,615.8z"/>
						</g>
					</g>
				</g>
				<g>
					<g>
						<g>
							<path class="st0" d="M145.7,834.9c-1-0.4-0.7-2,0.5-1.9c47.2,2.6,43.9-36.3,57-79.6c7.3-29.5,34.2-45,62.7-33
								c23,9.7,39.1,48.1,4,73c-0.9,0.6-2-0.4-1.4-1.3c10.2-16.9,4.5-38.6-14.3-41.2C216.6,745.5,222.2,867.4,145.7,834.9z"/>
						</g>
						<g>
							<path class="st0" d="M375.6,738.8c1,0.4,0.7,2-0.5,1.9c-47.2-2.6-43.9,36.3-57,79.6c-7.3,29.5-34.2,45-62.7,33
								c-23-9.7-39.1-48.1-4-73c0.9-0.6,2,0.4,1.4,1.3c-10.2,16.9-4.5,38.6,14.3,41.2C304.8,828.2,299.1,706.3,375.6,738.8z"/>
						</g>
					</g>
				</g>
				<g>
					<g>
						<g>
							<path class="st0" d="M243.4,658.4c-1-0.4-0.7-2,0.5-1.9c47.2,2.6,43.9-36.3,57-79.6c7.3-29.5,34.2-45,62.7-33
								c23,9.7,39.1,48.1,4,73c-0.9,0.6-2-0.4-1.4-1.3c10.2-16.9,4.5-38.6-14.3-41.2C314.3,569,319.9,690.8,243.4,658.4z"/>
						</g>
						<g>
							<path class="st0" d="M473.3,562.2c1,0.4,0.7,2-0.5,1.9c-47.2-2.6-43.9,36.3-57,79.6c-7.3,29.5-34.2,45-62.7,33
								c-23-9.7-39.1-48.1-4-73c0.9-0.6,2,0.4,1.4,1.3c-10.2,16.9-4.5,38.6,14.3,41.2C402.5,651.6,396.8,529.7,473.3,562.2z"/>
						</g>
					</g>
				</g>
				<g>
					<g>
						<g>
							<path class="st0" d="M304.3,949.7c-1-0.4-0.7-2,0.5-1.9c47.2,2.6,43.9-36.3,57-79.6c7.3-29.5,34.2-45,62.7-33
								c23,9.7,39.1,48.1,4,73c-0.9,0.6-2-0.4-1.4-1.3c10.2-16.9,4.5-38.6-14.3-41.2C375.1,860.3,380.8,982.2,304.3,949.7z"/>
						</g>
						<g>
							<path class="st0" d="M534.2,853.6c1,0.4,0.7,2-0.5,1.9c-47.2-2.6-43.9,36.3-57,79.6c-7.3,29.5-34.2,45-62.7,33
								c-23-9.7-39.1-48.1-4-73c0.9-0.6,2,0.4,1.4,1.3c-10.2,16.9-4.5,38.6,14.3,41.2C463.3,943,457.7,821.1,534.2,853.6z"/>
						</g>
					</g>
				</g>
				<g>
					<g>
						<g>
							<path class="st0" d="M59.7,1011.5c-1-0.4-0.7-2,0.5-1.9c47.2,2.6,43.9-36.3,57-79.6c7.3-29.5,34.2-45,62.7-33
								c23,9.7,39.1,48.1,4,73c-0.9,0.6-2-0.4-1.4-1.3c10.2-16.9,4.5-38.6-14.3-41.2C130.6,922.1,136.2,1044,59.7,1011.5z"/>
						</g>
						<g>
							<path class="st0" d="M289.6,915.3c1,0.4,0.7,2-0.5,1.9c-47.2-2.6-43.9,36.3-57,79.6c-7.3,29.5-34.2,45-62.7,33
								c-23-9.7-39.1-48.1-4-73c0.9-0.6,2,0.4,1.4,1.3c-10.2,16.9-4.5,38.6,14.3,41.2C218.8,1004.8,213.1,882.9,289.6,915.3z"/>
						</g>
					</g>
				</g>
				<g>
					<g>
						<g>
							<path class="st0" d="M213.8,1128.2c-1-0.4-0.7-2,0.5-1.9c47.2,2.6,43.9-36.3,57-79.6c7.3-29.5,34.2-45,62.7-33
								c23,9.7,39.1,48.1,4,73c-0.9,0.6-2-0.4-1.4-1.3c10.2-16.9,4.5-38.6-14.3-41.2C284.7,1038.8,290.4,1160.7,213.8,1128.2z"/>
						</g>
						<g>
							<path class="st0" d="M443.8,1032.1c1,0.4,0.7,2-0.5,1.9c-47.2-2.6-43.9,36.3-57,79.6c-7.3,29.5-34.2,45-62.7,33
								c-23-9.7-39.1-48.1-4-73c0.9-0.6,2,0.4,1.4,1.3c-10.2,16.9-4.5,38.6,14.3,41.2C372.9,1121.5,367.2,999.6,443.8,1032.1z"/>
						</g>
					</g>
				</g>
				<g>
					<g>
						<g>
							<path class="st0" d="M579.4,853c-1-0.4-0.7-2,0.5-1.9c47.2,2.6,43.9-36.3,57-79.6c7.3-29.5,34.2-45,62.7-33
								c23,9.7,39.1,48.1,4,73c-0.9,0.6-2-0.4-1.4-1.3c10.2-16.9,4.5-38.6-14.3-41.2C650.3,763.6,655.9,885.5,579.4,853z"/>
						</g>
						<g>
							<path class="st0" d="M809.3,756.9c1,0.4,0.7,2-0.5,1.9c-47.2-2.6-43.9,36.3-57,79.6c-7.3,29.5-34.2,45-62.7,33
								c-23-9.7-39.1-48.1-4-73c0.9-0.6,2,0.4,1.4,1.3c-10.2,16.9-4.5,38.6,14.3,41.2C738.5,846.3,732.8,724.4,809.3,756.9z"/>
						</g>
					</g>
				</g>
				<g>
					<g>
						<g>
							<path class="st0" d="M497.8,1028.7c-1-0.4-0.7-2,0.5-1.9c47.2,2.6,43.9-36.3,57-79.6c7.3-29.5,34.2-45,62.7-33
								c23,9.7,39.1,48.1,4,73c-0.9,0.6-2-0.4-1.4-1.3c10.2-16.9,4.5-38.6-14.3-41.2C568.6,939.3,574.3,1061.2,497.8,1028.7z"/>
						</g>
						<g>
							<path class="st0" d="M727.7,932.6c1,0.4,0.7,2-0.5,1.9c-47.2-2.6-43.9,36.3-57,79.6c-7.3,29.5-34.2,45-62.7,33
								c-23-9.7-39.1-48.1-4-73c0.9-0.6,2,0.4,1.4,1.3c-10.2,16.9-4.5,38.6,14.3,41.2C656.8,1022,651.2,900.1,727.7,932.6z"/>
						</g>
					</g>
				</g>
			</g>
		</g>
	</g>
</g>
</svg>
