<?xml version="1.0" encoding="utf-8"?>
<!-- Generator: Adobe Illustrator 23.1.0, SVG Export Plug-In . SVG Version: 6.00 Build 0)  -->
<svg version="1.1" id="Capa_1" xmlns="http://www.w3.org/2000/svg" xmlns:xlink="http://www.w3.org/1999/xlink" x="0px" y="0px"
	 viewBox="0 0 979.7 827.3" style="enable-background:new 0 0 979.7 827.3;" xml:space="preserve">
<style type="text/css">
	.st0{fill:#034E7C;}
</style>
<g>
	<path class="st0" d="M965.5,199.2c-3.6-3.2-8.9-3-12.1,0.5l-37.6,40.9L881,208.5l-73.2-67.3l-88.6-81.6l37.6-40.9
		c3.2-3.6,3-8.9-0.5-12.1c-3.4-3.2-8.9-3-12.1,0.5l-43.4,47.2c-3.2,3.6-3,8.9,0.5,12.1l33.6,30.8l-15.2,16.4
		c-5.6,6.2-12.9,10.5-21,12.5l-33.5,8.4c-12.5,3.1-23.6,9.7-32.4,19.2L512.3,284.7c-4.5-1.9-9.3-3.1-14.2-3.1
		c-16.3,0-29.9,11.3-33.7,26.5c-6-4.1-13.1-6.5-20.9-6.5c-3.6,0-7,0.7-10.2,1.6l-47.5-47.5c-1.2-1-6-6-6.2-10.6c0-0.9,0-3.6,3.9-7.3
		c3.2-2.7,21.1,0.3,33,2.3c33.1,5.6,78.3,13.2,107.9-17c0.3-0.3,0.7-0.8,0.9-1.2c0.8-1.2,7.8-12,5-24.3c-1.2-5.1-4.3-12.5-13.8-18.3
		c-9.8-6-22.6-7.4-38.8-9.3c-19.7-2.3-44.4-5-75.5-16.9c-59.1-22.7-78.9-23.6-118.2-23.6c-25.5,0-43.9-13.8-52.3-21.7l33.6-33.6
		c3.3-3.3,3.3-8.8,0-12.1L220,16.6c-3.3-3.3-8.8-3.3-12.1,0c-3.3,3.3-3.3,8.8,0,12.1L247.2,68L58.3,257.5L19,218.2
		c-3.3-3.3-8.8-3.3-12.1,0c-3.3,3.3-3.3,8.8,0,12.1l45.4,45.4c1.7,1.7,3.9,2.5,6,2.5c2.2,0,4.3-0.8,6-2.5l32.3-32.3l15.9,15.9
		c6,5.8,9.9,13.2,11.5,21.5l6.9,33.8c2.6,12.5,8.8,24,17.8,33.1l116.7,116.6c-5.7,6.6-7.7,15.4-5.4,25.4c2.7,11.3,10.8,21.4,21,34.1
		c12.5,15.5,27.9,35,41.3,65.2c24.7,55.4,37.2,70.7,67,100.4c17.9,17.9,21.2,40.6,21.7,52.3h-47.5c-4.7,0-8.6,3.9-8.6,8.6v64.1
		c0,4.7,3.9,8.6,8.6,8.6s8.6-3.9,8.6-8.6v-55.5h267.3v55.5c0,4.7,3.9,8.6,8.6,8.6s8.6-3.9,8.6-8.6v-64.1c0-4.7-3.9-8.6-8.6-8.6
		h-45.7v-22.4c0-8.4,2.4-16.6,7-23.4l19-28.8c7.1-10.6,10.8-23.2,10.8-36.1V490.7L734.3,387c1.2-1.6,6-6.4,10.5-6.6
		c0.9,0,3.6-0.2,7.3,3.6c2.9,3.1,0.6,21-0.9,33c-4.2,33.4-10.1,78.9,21.5,107.3c0.3,0.3,0.8,0.7,1.2,0.9c1,0.6,8.4,4.9,17.5,4.9
		c2.3,0,4.6-0.2,7-0.9c5-1.4,12.2-4.9,17.6-14.5c5.7-10.2,6.6-23.1,7.7-39.4c1.4-19.9,3.1-44.5,13.6-75.9
		c19.4-57.4,20.4-77.3,18.6-119.2c-1.2-25.4,11.9-44.3,19.4-53.1l35,32.1c1.6,1.5,3.6,2.3,5.8,2.3h0.3c2.3,0,4.5-1.2,6-2.7
		l43.4-47.2c3.2-3.6,3-8.9-0.5-12.1L965.5,199.2z M161,335.5c-6.7-6.7-11.3-15.2-13.1-24.5l-6.9-33.7c-2.3-11.7-7.9-22.1-16.2-30.3
		l-15.9-15.9l111-111c10.4,9.8,32.9,26.6,64.5,26.6c38,0,55.7,0.9,112.1,22.5c33.1,12.7,60.1,15.6,79.7,17.9
		c14.2,1.6,25.2,2.9,31.9,6.9c3.4,2.1,5.4,4.5,6,7.2c0.9,4-1,8.6-2.2,10.6c-23.3,23.1-61.5,16.7-92.2,11.4
		c-22.4-3.8-38.5-6.5-47.6,2.1c-7.9,7.4-9.4,15.1-9.3,20.2c0.3,13,11.1,22.3,11.8,22.7l43.6,43.6c0,0-0.3,0.2-0.5,0.5
		c-7,7-10.8,16.2-10.8,26.2v18l-10.4-10.4c-0.2-0.3-0.5-0.6-0.8-0.8l-47.3-47.3c-3.3-3.3-8.8-3.3-12.1,0c-3.3,3.3-3.3,8.8,0,12.1
		l46.6,46.6c0,0,0.5,0.6,0.8,0.9l23.3,23.2v50.2l-95.7-95.7c-3.3-3.3-8.8-3.3-12.1,0c-3.3,3.3-3.3,8.8,0,12.1l107.8,107.8v50.4
		c-2.6-0.9-5.1-2.4-7.2-4.5L272.5,374c-3.3-3.3-8.8-3.3-12.1,0c-3.3,3.3-3.3,8.8,0,12.1l116.8,117l1.2,1.2c0,0,0.1,0,0.2,0.1
		l8.9,8.9c5.3,5.3,12,8.7,19.3,9.8v4.9c0.1,2.1,0,8.7-3.2,12c-0.6,0.6-2.5,2.5-7.8,2.3c-0.3,0-3.4-0.6-11.7-11.2
		c-3.2-4.1-6.6-8.9-10.3-13.9c-19.3-27.1-45.6-64.1-87.2-64.1c-0.8,0-1.6,0-2.4,0.1c-0.2,0-1.9,0.3-4.1,1.2L160.9,335.4L161,335.5z
		 M622.2,403.5V631c0,9.6-2.7,18.8-8,26.6l-19,28.8c-6.4,9.7-9.8,21.1-9.8,32.9v22.4H428.5c-0.5-14.4-4.5-42.1-26.7-64.4
		c-26.9-26.9-38.8-40-63.5-95.3c-14.4-32.3-31.3-53.5-43.6-68.9c-8.9-11.1-15.9-19.9-17.7-27.4c-1.5-6.3,0.2-10.4,5.6-13.4
		c1.8-1,3.6-1.6,4.3-1.8c32.8,0,55.2,31.5,73.2,56.9c3.8,5.4,7.3,10.3,10.6,14.5c6.6,8.6,14.7,17.3,24.5,17.8
		c10.8,0.3,17.3-4,20.9-7.7c9-9.5,8-23.6,7.9-24.5V338.8c0-5.3,2.1-10.3,5.8-14c1.6-1.6,3.3-2.9,5.5-3.8c2.5-1.2,5.4-1.9,8.4-1.9
		c11,0,19.7,8.9,19.7,19.7V525c0,4.7,3.9,8.6,8.6,8.6c4.7,0,8.6-3.9,8.6-8.6V316.7c0-9.8,8-17.7,17.7-17.7c4.7,0,9.4,1.8,12.5,5
		c2.4,2.4,5.3,6.6,5.3,12.7v208.2c0,4.7,3.9,8.6,8.6,8.6c4.7,0,8.6-3.9,8.6-8.6V345c0-10.3,8.4-18.7,18.7-18.7
		c2.2-0.1,4.5,0.3,6.6,1.2c0.2,0,0.5,0.2,0.7,0.2c2.2,0.9,4.2,2.4,6,4c3.6,3.6,5.5,8.2,5.5,13.2v179.9c0,4.7,3.9,8.6,8.6,8.6
		c4.7,0,8.6-3.9,8.6-8.6V360.4c0-4.5,1.8-8.9,5-12.1c3.2-3.2,7.5-5,12.1-5c9.5,0,17.1,7.7,17.1,17.1v43L622.2,403.5z M839.1,280.8
		c1.6,38,1.5,55.7-17.8,113.1c-11.2,33.5-13.1,60.4-14.5,80.2c-1,14.2-1.8,25.5-5.6,32.2c-1.9,3.4-4.1,5.5-6.9,6.2
		c-4,1.2-8.7-0.7-10.8-1.7c-24.1-22.4-19.2-60.8-15.3-91.7c2.9-22.4,4.9-38.6-4-47.3c-7.8-7.7-15.5-8.8-20.7-8.4
		c-13,0.9-21.9,12-22.4,12.7l-82.1,89.3v-58.6l6-6.4c0,0,0-0.1,0.1-0.2l45.2-49.2c3.2-3.6,3-8.9-0.6-12.1c-3.4-3.2-8.9-3-12.1,0.6
		l-38.6,42v-20.9c0-8.6-3.3-16.3-8.4-22.3l20.9-22.8c3.2-3.6,3-8.9-0.6-12.1c-3.6-3.2-8.9-3-12.1,0.6l-22.5,24.5
		c-3.6-1.2-7.4-2.2-11.5-2.2c-7.1,0-13.8,2.2-19.5,6.2c-1.8-4.8-4.5-9.1-8.2-12.8c-0.7-0.7-1.4-1.2-2.1-1.7l18.3-19.9v-0.1
		l17.9-19.5c3.2-3.6,3-8.9-0.6-12.1c-3.6-3.2-8.9-3-12.1,0.6l-39.6,43c-2.4-0.5-4.8-0.8-7.3-0.8h-0.1c-7,0-13.4,2.2-18.8,5.6
		c-0.3-7-2.9-13.6-7.1-19.3l119.6-130c6.5-7,14.7-11.9,23.9-14.2l33.5-8.4c11.4-2.9,21.6-9,29.5-17.6l15.1-16.4l64.1,58.8l51.5,47.4
		c-9.4,10.8-25.2,33.9-23.9,65.6L839.1,280.8z"/>
	<path class="st0" d="M648.1,827.3c-7.1,0-13-5.8-13-13v-51.1H376.7v51.1c0,7.1-5.8,13-13,13c-7.1,0-13-5.8-13-13v-64.1
		c0-7.1,5.8-13,13-13h42.8c-1.1-11.9-5.5-30.1-20.1-44.8c-30.1-30-42.9-45.5-67.9-101.7c-13.4-30.1-28.6-49.1-40.7-64.3
		c-10.7-13.4-18.9-23.7-21.9-35.9c-2.2-9.6-0.9-18.7,3.8-26l-114-114c-9.7-9.7-16.2-22-19-35.3l-6.9-33.8c-1.4-7.4-5-14-10.3-19.2
		l-12.8-12.8l-29.2,29.2c-4.9,4.9-13.4,4.9-18.3,0L3.8,233.4c-5-5.1-5-13.3,0-18.3c5.1-5,13.3-5,18.3,0l36.2,36.2L241,68l-36.2-36.2
		c-5-5.1-5-13.3,0-18.3c5.1-5,13.3-5,18.3,0l45.4,45.4c5,5.1,5,13.3,0,18.3l-30.3,30.3c9.1,7.6,25,17.5,45.9,17.5
		c40,0,60.2,1,119.8,23.9c30.2,11.6,54.4,14.3,73.8,16.6c17.4,2,30.7,3.5,41.3,9.9c8.5,5.2,13.9,12.3,15.8,21.1
		c3.3,14.8-5.3,27.3-5.7,27.8c-0.1,0.1-0.6,1-1.4,1.7c-31.2,31.9-77.8,24-111.8,18.2l-1.8-0.3c-8-1.3-24.8-4-28-2.7
		c-0.6,0.7-1.9,2.3-1.9,3.7c0.1,2.4,3.3,6.2,4.6,7.2l46,46c2.4-0.6,5.5-1.1,8.8-1.1c6.5,0,12.7,1.5,18.4,4.3
		c7.6-18.5,28.7-29.3,49.2-22.1l118.4-128.7c9.4-10.1,21.3-17.2,34.6-20.5l33.4-8.4c7.3-1.9,13.8-5.7,18.8-11.2l12.2-13.2
		l-30.3-27.9c-5.3-4.9-5.6-13-0.8-18.3l43.4-47.2c2.4-2.5,5.6-4,9-4.1c3.6-0.2,6.8,1.1,9.3,3.4c5.2,4.9,5.6,12.9,0.7,18.3
		l-34.6,37.7l190.2,175l34.6-37.7c1-1.1,2.1-1.9,3.3-2.6l-1.8-1.7l4.2,0.7c4.2-1.3,9-0.4,12.6,2.8l11.2,10.1l-7.3-1.2
		c0.2,3.3-1,6.7-3.4,9.4l-43.4,47.2c-5.3,5.6-13.9,5-18.4,0.7l-31.5-28.9c-7.2,9.4-16.4,25.7-15.5,46.5
		c1.8,42.7,0.7,62.9-18.9,120.8c-10.3,30.9-12,55.3-13.4,74.8c-1,16.1-1.9,30-8.2,41.3c-6.1,10.8-14.4,15-20.3,16.6
		c-7.7,2.2-18.3,0.9-27.5-4.3c-0.9-0.4-1.7-1-2.4-1.7c-33.1-29.7-27.1-76.6-22.7-110.8l0.2-1.4c0.9-7.6,3.1-25.3,1.6-28.6
		c-1.9-1.8-3.2-1.8-3.6-1.8c-2.3,0.1-5.9,3.3-7.2,5l-94.2,102.7v138.6c0,13.8-4,27.2-11.6,38.5l-19,28.8c-4.1,6.1-6.3,13.4-6.3,21
		v18h41.3c7.1,0,13,5.8,13,13v64.1C661.1,821.4,655.3,827.3,648.1,827.3z M367.9,754.4h276.1v59.9c0,2.2,2,4.2,4.2,4.2
		s4.2-2,4.2-4.2v-64.1c0-2.2-2-4.2-4.2-4.2H598v-26.8c0-9.4,2.7-18.3,7.7-25.9l19-28.8c6.6-9.9,10.1-21.6,10.1-33.7v-142l96.3-105
		c0,0,0,0,0,0c0,0,6.1-7.6,13.5-8.1c1.7,0,5.8-0.1,10.7,4.8c3.7,4,3.2,13.6,0.5,35.3l-0.2,1.3c-4.1,32.4-9.7,76.7,20,103.5
		c7,4,12.4,4.7,15.8,4.7c2.2,0,4-0.2,5.8-0.7c6.3-1.7,11.3-5.9,15-12.4c5.4-9.5,6.2-22.5,7.1-37.5c1.4-20.1,3.1-45.1,13.8-77.1
		c19.1-56.6,20.2-76.1,18.4-117.7c-1.2-26.7,12.3-46.7,20.5-56.2l3-3.4l38.3,35.2c2.6,2.4,4.7,1.1,6-0.3l43.3-47.1
		c1.6-1.7,1.5-4.3-0.2-5.9l-0.5-0.5c-1.7-0.9-3.8-0.6-5.1,0.8l-40.5,44.1L713,59.9l40.5-44.1c1.6-1.7,1.5-4.3-0.2-5.9
		c-0.8-0.7-1.8-1-3-1.1c-1.1,0.1-2.2,0.5-3,1.3L704,57.3c-1.6,1.7-1.5,4.3,0.2,5.9L741.1,97l-18.2,19.7
		c-6.2,6.8-14.2,11.5-23.2,13.8l-33.5,8.4c-11.6,2.9-22.1,9.1-30.3,17.9L513.5,290l-2.9-1.2c-18.5-8-37.5,2.8-41.9,20.5l-1.5,6.2
		l-5.2-3.6c-5.4-3.8-11.8-5.7-18.4-5.7c-2.7,0-5.5,0.4-9,1.4l-2.5,0.7l-49.3-49.3c0,0,0,0,0,0c0,0-7.3-6.3-7.5-13.6
		c0-1.5,0-5.5,5.2-10.6c4.2-3.6,13.7-2.7,34.9,0.8l1.8,0.3c32.1,5.4,76.1,12.9,104.1-15.7c0.5-0.7,7.2-10.6,4.8-21.5
		c-1.4-6.3-5.4-11.6-11.8-15.5c-9-5.4-21.4-6.9-37-8.6c-20.6-2.4-45.3-5.2-76.6-17.2c-58.2-22.4-77.8-23.4-116.6-23.4
		c-26.8,0-46.1-14.3-55.3-22.9l-3.3-3.1L262.3,71c1.6-1.6,1.6-4.3,0-5.9l-45.3-45.3c-1.6-1.6-4.3-1.6-5.9,0c-1.6,1.6-1.6,4.3,0,5.9
		L253.4,68L58.3,263.7l-42.4-42.4c-1.6-1.6-4.3-1.6-5.9,0c-1.6,1.6-1.6,4.3,0,5.9l45.3,45.3c1.6,1.6,4.2,1.6,5.9,0l35.4-35.4l19,19
		c6.6,6.4,11,14.6,12.7,23.7l6.8,33.8c2.4,11.7,8.2,22.4,16.6,30.9L271.4,464l-2.7,3.1c-4.8,5.6-6.4,13.1-4.4,21.5
		c2.5,10.2,10.2,19.9,19.9,32c12.1,15.1,28.3,35.4,42.2,66.5c24.4,54.8,36.9,69.9,66.1,99.1c18.8,18.8,22.5,42.7,23,55.2l0.2,4.6
		h-52.1c-2.3,0-4.2,1.9-4.2,4.2v64.1c0,2.2,2,4.2,4.2,4.2c2.3,0,4.2-1.9,4.2-4.2V754.4z M589.8,746H424.2l-0.1-4.2
		c-0.5-13.9-4.4-40.4-25.4-61.5c-27.3-27.2-39.4-40.5-64.4-96.6c-14.1-31.7-30.8-52.6-43-67.8c-8.9-11.1-16.6-20.6-18.6-29.2
		c-2-8.2,0.7-14.3,7.8-18.2c2-1.1,3.9-1.8,4.9-2.1l1.5-0.3c35,0,58.2,32.5,76.7,58.7c3.8,5.4,7.3,10.2,10.5,14.4
		c6,7.8,13.2,15.7,21.2,16.1c9.2,0.3,14.6-3.3,17.5-6.3c7.7-8.1,6.7-20.7,6.7-20.8l0-189.4c0-6.5,2.5-12.6,7.1-17.2
		c2.2-2.2,4.4-3.7,6.9-4.7c2.9-1.5,6.4-2.3,10.1-2.3c13.3,0,24.1,10.8,24.1,24.1V525c0,2.3,1.9,4.2,4.2,4.2c2.3,0,4.2-1.9,4.2-4.2
		V316.7c0-12.2,9.9-22.1,22.1-22.1c5.9,0,11.7,2.4,15.7,6.3c2.4,2.4,6.6,7.8,6.6,15.8v208.2c0,2.2,2,4.2,4.2,4.2
		c2.2,0,4.2-2,4.2-4.2V345c0-12.7,10.4-23.1,23.1-23.1c2.2-0.1,4.7,0.3,7.4,1.2l1.6,0.5c2.4,1,4.9,2.6,7.3,4.8
		c4.5,4.5,6.9,10.3,6.9,16.5v179.9c0,2.2,2,4.2,4.2,4.2c2.2,0,4.2-2,4.2-4.2V360.4c0-5.6,2.3-11.2,6.3-15.2
		c4.1-4.1,9.5-6.3,15.3-6.3c11.9,0,21.5,9.7,21.5,21.5l0.2,270.5c0,10.6-3,20.6-8.8,29.1l-18.9,28.7c-5.9,9.1-9.1,19.6-9.1,30.5V746
		z M432.6,737.3H581v-18c0-12.6,3.6-24.8,10.5-35.3l19-28.8c4.8-7,7.3-15.4,7.3-24.2l-0.2-270.5c0-7-5.7-12.7-12.7-12.7
		c-3.4,0-6.6,1.3-9,3.7c-2.3,2.4-3.7,5.7-3.7,9v164.3c0,7.1-5.8,13-13,13c-7.1,0-13-5.8-13-13V344.9c0-3.9-1.5-7.4-4.2-10.1
		c-1.2-1.1-2.5-2.1-3.8-2.7l-1.3-0.5c-1.8-0.7-3.5-1-4.8-0.9c-8.2,0-14.6,6.4-14.6,14.3v179.9c0,7.1-5.8,13-13,13
		c-7.1,0-13-5.8-13-13V316.7c0-4.6-2.2-7.8-4-9.6c-2.3-2.3-5.9-3.7-9.4-3.7c-7.3,0-13.3,6-13.3,13.3V525c0,7.1-5.8,13-13,13
		c-7.1,0-13-5.8-13-13V338.8c0-8.5-6.9-15.4-15.4-15.4c-2.3,0-4.5,0.5-6.5,1.5c-1.7,0.7-3,1.6-4.3,2.9c-2.9,2.9-4.5,6.8-4.5,10.9
		v188.8c0,0,1.6,16.2-9.1,27.5c-4.2,4.3-11.8,9.4-24.2,9c-11.6-0.6-20.6-10.2-27.8-19.5c-3.3-4.3-6.9-9.3-10.7-14.7
		c-17.3-24.3-38.8-54.5-68.9-55c-0.8,0.3-1.8,0.7-2.9,1.3c-3.7,2-4.5,4.1-3.5,8.5c1.6,6.7,8.7,15.5,16.8,25.7
		c12.6,15.7,29.7,37.1,44.2,69.8c24.4,54.6,36.1,67.5,62.6,93.9C426,695.3,431.5,721.3,432.6,737.3z M396.8,546.8
		c-0.4,0-0.8,0-1.2,0c0,0,0,0,0,0c-2,0-6-1.4-14.9-12.9c-2.7-3.4-5.5-7.3-8.5-11.4l-1.9-2.6c-18.9-26.5-44.4-62.3-83.7-62.3
		c-0.6,0-1.1,0-1.7,0.1c-0.6,0.1-1.8,0.4-3.3,0.9l-2.6,1l-121.1-121l0,0c-7.4-7.4-12.3-16.6-14.4-26.7l-6.8-33.7
		c-2.1-10.7-7.3-20.4-15-28l-19-19L219.8,114l3.1,2.9c10.1,9.5,31.4,25.4,61.5,25.4c38.5,0,56.5,0.9,113.6,22.8
		c31.8,12.2,58,15.3,77.2,17.5l1.5,0.2c14.5,1.6,26,2.9,33.6,7.4c4.4,2.6,7.1,6,8,10c1.3,6-1.7,12-2.6,13.7l-0.7,1
		c-25,24.7-64.4,18-96,12.6c-21.2-3.6-36.4-6.1-43.9,0.9c-6.7,6.3-8,12.7-7.9,16.9c0.3,11.2,9.9,19.3,10,19.3l48,48l-4.4,2.8
		c-6.2,6.2-9.6,14.3-9.6,23.1v28.6l-66-66c-1.6-1.6-4.3-1.6-5.9,0c-1.6,1.6-1.6,4.3,0,5.9l72,71.9v62.7L308.1,338.5
		c-1.6-1.6-4.3-1.6-5.9,0c-1.6,1.6-1.6,4.3,0,5.9l109.1,109.1v58.4l-5.8-2c-3.4-1.2-6.4-3.1-8.9-5.5L269.4,377.1
		c-1.6-1.6-4.3-1.6-5.9,0c-1.6,1.6-1.6,4.3,0,5.9l127.1,127.2c4.6,4.6,10.5,7.6,16.9,8.6l3.7,0.6v8.7c0.1,0.8,0.5,10-4.5,15.1
		C404.3,545.6,401,546.8,396.8,546.8z M396.6,538C396.6,538,396.6,538,396.6,538c1.4,0,3-0.2,3.9-1c1.6-1.6,2.1-6.1,1.9-8.6l0-1.6
		c-6.8-1.7-13-5.2-18-10.3L363,495.1c5.2,6.6,9.9,13.2,14.3,19.4l2.1,2.9c2.9,4,5.7,7.8,8.3,11.2C393.1,535.5,395.8,537.5,396.6,538
		z M266.4,367.1c3.3,0,6.6,1.3,9.1,3.8l126.9,126.9v-40.7L296,350.6c-5-5.1-5-13.3,0-18.3c5.1-5,13.3-5,18.3,0l88.2,88.2v-37.8
		l-22-21.9c-0.5-0.5-1.1-1.2-1.1-1.2l-46.4-46.3c-5-5.1-5-13.3,0-18.3c5.1-5,13.3-5,18.3,0l47.3,47.3c0.1,0,0.6,0.4,1.1,1.1l2.6,2.6
		v-7.4c0-9.8,3.4-19.1,9.6-26.5l-40.6-40.6c-0.1-0.1-12.7-10.2-13.1-25.7c-0.2-6,1.6-15,10.6-23.5c10.7-10,27.6-7.2,51.1-3.2
		c29.7,5.1,66.3,11.3,88.1-9.7c1.1-2.1,1.9-5,1.5-7c-0.3-1.6-1.6-3-3.9-4.4c-5.9-3.6-17.1-4.8-30.1-6.3l-1.5-0.2
		c-19.6-2.3-46.5-5.5-79.3-18c-55.7-21.4-73.1-22.2-110.5-22.2c-30.2,0-52.4-14.5-64.4-24.9l-105,105l12.8,12.8
		c9,8.8,15,20.1,17.4,32.5l6.8,33.7c1.7,8.4,5.8,16,11.9,22.1l0,0l117.3,117.2c1.1-0.3,2.2-0.5,2.9-0.5c0.4-0.1,1.3-0.1,2.4-0.1
		c17.7,0,32.6,6.2,45.5,15.4l-74.9-75c-5-5.1-5-13.3,0-18.3C259.8,368.4,263.1,367.1,266.4,367.1z M791.5,517.2
		c-4.2,0-8.2-1.7-9.9-2.6l-1-0.7c-25.7-23.9-20.7-63.4-16.7-95.2c2.7-21.5,4.7-36.7-2.7-43.9c-5.3-5.2-11.1-7.6-17.3-7.2
		c-11.1,0.8-19,10.7-19.1,10.8l-90.1,98v-71.6l52.5-57.1c1.6-1.7,1.4-4.3-0.3-5.9c-0.8-0.8-1.8-1.2-2.9-1.1c-1.1,0-2.2,0.5-3,1.4
		l-46.2,50.3v-32.2c0-7-2.6-13.9-7.4-19.4l-2.6-3l23.5-25.7c1.6-1.7,1.4-4.3-0.3-5.9c-1.7-1.5-4.3-1.4-5.9,0.3l-24.4,26.7l-2.7-0.9
		c-4-1.3-7.1-1.9-10.1-1.9c-6.1,0-12,1.9-17,5.4l-4.6,3.2l-2-5.2c-1.7-4.5-4.1-8.2-7.2-11.2c-0.4-0.4-0.7-0.6-1.1-0.9l-3.8-2.9
		l2.7-4l36.2-39.5c1.6-1.7,1.4-4.3-0.3-5.9c-1.7-1.6-4.3-1.4-5.9,0.3l-41.3,44.9l-2.4-0.5c-2.6-0.5-4.6-0.7-6.5-0.7
		c-5.8,0-11.4,1.7-16.6,4.9l-6.3,4l-0.4-7.5c-0.3-5.9-2.4-11.8-6.2-16.9l-2.1-2.9l122-132.6c7.1-7.6,16.1-12.9,26-15.5l33.5-8.4
		c10.4-2.6,19.9-8.3,27.3-16.3l18-19.7l122,112.1l-2.8,3.2c-8.9,10.3-23.7,31.9-22.8,61.3l0.3,1.6c1.6,38.7,1.5,56.7-18,114.7
		c-11.1,33.3-13,59.7-14.3,79.1c-1.1,14.8-1.9,26.5-6.2,34.1c-2.6,4.6-5.7,7.3-9.6,8.3C794.1,517,792.8,517.2,791.5,517.2z M786,507
		c2.2,1,5.1,1.7,7,1.2c1.1-0.3,2.5-0.9,4.2-4.1c3.3-5.9,4.1-17.2,5.1-30.3c1.3-18.8,3.3-47,14.7-81.3
		c18.8-55.9,19.2-73.6,17.6-110.3l-0.3-0.4l-0.1-1.2c-1.3-30.1,12.3-52.9,22.2-65.4L747.3,114.8L735.2,128
		c-8.6,9.3-19.5,15.8-31.6,18.9l-33.5,8.4c-8.3,2.1-15.8,6.6-21.7,12.9L531.2,295.6c2.3,3.8,4,7.9,5,12.1c6.7-2.9,13.3-4,21.2-2.8
		l38-41.3c4.9-5.3,12.9-5.7,18.3-0.8c5.4,4.9,5.7,13,0.9,18.3l-33.3,36.3c2.4,2.5,4.3,5.3,6,8.5c5.4-2.8,11.4-4.2,17.6-4.2
		c3.9,0,7.3,0.7,10.2,1.5l20.6-22.5c4.9-5.3,12.9-5.7,18.3-0.9c5.4,4.9,5.7,12.9,0.9,18.3l-18.4,20.1c4.6,6.5,7.1,14.2,7.1,22v9.6
		l31-33.7c2.4-2.6,5.6-4.1,9.1-4.2c3.5-0.1,6.7,1.1,9.2,3.4c5.3,4.8,5.7,12.9,0.8,18.3l-50.2,54.6V454l74.5-81c0,0,10-13,25.3-14.1
		c6.1-0.4,15.2,0.9,24.1,9.7c10.5,10.2,8.3,27.3,5.3,51C768.8,449.4,764.2,486.2,786,507z"/>
</g>
</svg>
