<?xml version="1.0" encoding="utf-8"?>
<!-- Generator: Adobe Illustrator 23.1.0, SVG Export Plug-In . SVG Version: 6.00 Build 0)  -->
<svg version="1.1" id="Capa_1" xmlns="http://www.w3.org/2000/svg" xmlns:xlink="http://www.w3.org/1999/xlink" x="0px" y="0px"
	 viewBox="0 0 792.5 696.7" style="enable-background:new 0 0 792.5 696.7;" xml:space="preserve">
<style type="text/css">
	.st0{fill:#f4a490;}
</style>
<g>
	<g>
		<g>
			<path class="st0" d="M404.7,688.1l-22.9,0c-2.1,0-4.1-0.5-5.9-1.5C243.2,667.6,8.1,467.5,8.6,237.7
				c0.1-67.8,23.6-125.8,67.8-167.9c41.7-39.6,99.3-61.4,162.2-61.3c58.5,0.1,115.3,31,158,85.4c42.8-54.2,99.7-84.9,158.3-84.8
				c62.9,0.1,120.4,22.1,162,61.9c44.1,42.2,67.3,100.3,67.1,168.1c-0.4,233.3-243.4,434.9-375,448.2
				C407.6,687.9,406.2,688.1,404.7,688.1z M238.5,33.7c-56.4-0.1-107.8,19.2-144.9,54.4C54.5,125.2,33.8,177,33.7,237.8
				c-0.1,53.4,13.4,108,40.1,162.1c23.5,47.6,57.5,94.6,98.3,136.2c73.4,74.7,165.2,126.9,223.3,127s150.1-51.8,223.8-126.2
				c41-41.4,75.1-88.3,98.8-135.8c26.9-54,40.6-108.5,40.7-162c0.1-60.8-20.5-112.6-59.4-149.9c-36.8-35.3-88.3-54.8-144.7-54.9
				c-55-0.1-109,32-148,88c-3.9,5.7-11.8,7.1-17.5,3.2c-1.3-0.9-2.3-2-3.2-3.2C347.4,66.1,293.6,33.8,238.5,33.7L238.5,33.7z"/>
			<path class="st0" d="M404.8,696.7C404.8,696.7,404.7,696.7,404.8,696.7l-23,0c-2.5,0.1-5.8-0.6-8.4-1.8
				C241.2,674.9-0.4,474.1,0,237.7c0.1-70.2,24.5-130.4,70.4-174.1C113.6,22.6,173.1,0,238,0c0.2,0,0.4,0,0.5,0
				c57.5,0.1,114.6,29.3,158,80.4C440,29.5,497,0.6,554.5,0.6c0.1,0,0.2,0,0.3,0c65.1,0.1,124.7,22.9,167.9,64.3
				c45.8,43.8,69.9,104.1,69.8,174.3c-0.5,241-250.8,442.6-381.8,456.7C408.8,696.4,406.8,696.7,404.8,696.7z M381.8,679.5l23,0
				c0.7-0.3,0.9-0.1,1.3-0.2l2-0.5c125.5-12.7,366.8-207.1,367.2-439.7c0.1-65.4-22.2-121.4-64.5-161.9
				c-40-38.3-95.4-59.4-156.1-59.5c-0.1,0-0.2,0-0.3,0c-56,0-109.7,28.9-151.2,81.5l-6.8,8.6l-6.7-8.6
				c-41.4-52.8-95.1-82-151.2-82.1c-0.2,0-0.3,0-0.5,0c-60.5,0-115.8,20.9-155.8,58.9c-42.5,40.3-65,96.2-65.1,161.6
				c-0.4,228.4,233.3,422.2,360,440.4l1.5,0.2l1.3,0.7C380.5,679.3,380.9,679.4,381.8,679.5z M395.6,671.6c-0.1,0-0.1,0-0.2,0
				c-60.2-0.1-154.6-53.4-229.4-129.5c-41.4-42.2-75.9-90-99.9-138.4c-27.3-55.3-41.1-111.2-41-165.9
				c0.1-63.2,21.8-117.1,62.6-155.9c36.8-34.9,87-54.8,142.2-56.6v-0.2l8.6,0c57.9,0.1,114.3,33.7,154.6,92.2c0.3,0.4,0.6,0.8,1,1
				c1.8,1.2,4.3,0.8,5.5-1c40.6-58.3,97-91.7,154.8-91.7c0.1,0,0.2,0,0.3,0c58.7,0.1,112.2,20.5,150.6,57.3
				c40.7,39,62.1,93,62,156.1c-0.1,54.8-14.1,110.5-41.6,165.8c-24.1,48.3-58.8,96-100.4,138C550.3,618.7,455.8,671.6,395.6,671.6z
				 M238.1,42.3c-54,0-103.2,18.5-138.5,52c-37.4,35.5-57.2,85.1-57.3,143.5c-0.1,52.1,13.1,105.4,39.2,158.3
				c23.1,46.7,56.6,93.1,96.7,134c71.9,73.1,161.2,124.3,217.2,124.4c0.1,0,0.1,0,0.2,0c56,0,145.4-50.8,217.5-123.6
				c40.3-40.7,74-86.9,97.2-133.6c26.3-52.8,39.7-106,39.8-158.1c0.1-58.3-19.5-108-56.7-143.7C658.3,61.6,609,43,554.7,42.9
				c-0.1,0-0.2,0-0.3,0c-52.1,0-103.3,30.7-140.7,84.3c-6.6,9.6-19.8,12-29.4,5.3c-2.1-1.5-4-3.3-5.4-5.4
				c-36.5-52.8-86.5-83.6-137.8-84.8l-2.7,0C238.4,42.3,238.2,42.3,238.1,42.3z"/>
		</g>
	</g>
</g>
</svg>
