<?xml version="1.0" encoding="utf-8"?>
<!-- Generator: Adobe Illustrator 23.1.0, SVG Export Plug-In . SVG Version: 6.00 Build 0)  -->
<svg version="1.1" id="Capa_1" xmlns="http://www.w3.org/2000/svg" xmlns:xlink="http://www.w3.org/1999/xlink" x="0px" y="0px"
	 viewBox="0 0 886.3 886.3" style="enable-background:new 0 0 886.3 886.3;" xml:space="preserve">
<style type="text/css">
	.st0{fill:#034E7C;}
</style>
<g>
	<path class="st0" d="M798.3,886.3H87.9C39.4,886.3,0,846.8,0,798.3V87.9C0,39.4,39.4,0,87.9,0h710.4c48.5,0,87.9,39.4,87.9,87.9
		v710.4C886.3,846.8,846.8,886.3,798.3,886.3z M87.9,38.6c-27.2,0-49.3,22.1-49.3,49.3v710.4c0,27.2,22.1,49.3,49.3,49.3h710.4
		c27.2,0,49.3-22.1,49.3-49.3V87.9c0-27.2-22.1-49.3-49.3-49.3H87.9z"/>
	<path class="st0" d="M694,129.8c-40.5-5.1-74.6,29-69.5,69.5c3.5,27.6,25.8,49.9,53.4,53.4c40.5,5.1,74.6-29,69.5-69.5
		C743.9,155.5,721.6,133.2,694,129.8z"/>
	<path class="st0" d="M443.1,693.7c-116.9,0-212.1-95.1-212.1-212.1c0-117,95.2-212.2,212.1-212.2c116.9,0,212.1,95.1,212.1,212.1
		v0.1C655.2,598.6,560.1,693.7,443.1,693.7z M443.2,308.1c-95.7,0-173.5,77.8-173.5,173.5c0,95.7,77.8,173.5,173.5,173.5
		c95.7,0,173.5-77.8,173.5-173.5v-0.1C616.6,385.9,538.8,308.1,443.2,308.1z"/>
</g>
</svg>
