<?xml version="1.0" encoding="utf-8"?>
<!-- Generator: Adobe Illustrator 23.1.0, SVG Export Plug-In . SVG Version: 6.00 Build 0)  -->
<svg version="1.1" id="Capa_1" xmlns="http://www.w3.org/2000/svg" xmlns:xlink="http://www.w3.org/1999/xlink" x="0px" y="0px"
	 viewBox="0 0 885.9 663.4" style="enable-background:new 0 0 885.9 663.4;" xml:space="preserve">
<style type="text/css">
	.st0{fill:#034E7C;}
</style>
<g>
	<g>
		<path class="st0" d="M796.6,1.1H89.3C40.7,1.1,1.1,40.7,1.1,89.3v484.8c0,48.6,39.5,88.1,88.1,88.1h707.3
			c48.6,0,88.1-39.5,88.1-88.1V89.3C884.7,40.7,845.2,1.1,796.6,1.1z M530.9,331.7L845.5,56.9c6.2,9.3,9.8,20.4,9.8,32.4v484.8
			c0,12-3.6,23.1-9.8,32.4L530.9,331.7L530.9,331.7z M796.6,30.6c9.6,0,18.6,2.5,26.6,6.7L442.9,369.4L62.7,37.3
			c8-4.1,17-6.7,26.6-6.7H796.6z M40.4,606.5c-6.2-9.3-9.8-20.4-9.8-32.4V89.3c0-12,3.6-23.1,9.8-32.4L355,331.7L40.4,606.5z
			 M89.3,632.8c-9.6,0-18.6-2.5-26.6-6.7l314.7-274.9l55.9,48.8c2.8,2.4,6.2,3.6,9.7,3.6s6.9-1.2,9.7-3.6l55.9-48.8l314.7,274.9
			c-8,4.1-17,6.7-26.6,6.7L89.3,632.8L89.3,632.8z"/>
		<path class="st0" d="M796.6,663.4H89.3C40,663.4,0,623.3,0,574.1V89.3C0,40,40,0,89.3,0h707.3c49.2,0,89.3,40,89.3,89.3v484.8
			C885.9,623.3,845.8,663.4,796.6,663.4z M89.3,2.3c-48,0-87,39-87,87v484.8c0,48,39,87,87,87h707.3c48,0,87-39,87-87V89.3
			c0-48-39-87-87-87H89.3z M796.6,633.9H89.3c-9.2,0-18.3-2.3-27.1-6.8l-1.5-0.8l316.7-276.6l56.6,49.5c4.9,4.3,12.9,4.3,17.9,0
			l56.6-49.5l0.7,0.6l315.9,276l-1.5,0.8C814.9,631.6,805.8,633.9,796.6,633.9z M64.7,625.9c8,3.8,16.2,5.8,24.6,5.8h707.3
			c8.3,0,16.6-2,24.6-5.8L508.5,352.8l-55.1,48.2c-2.9,2.5-6.6,3.9-10.4,3.9c-3.9,0-7.6-1.4-10.4-3.9l-55.1-48.2L64.7,625.9z
			 M845.7,608.2l-1-0.9L529.2,331.7l1-0.9L845.7,55.2l0.7,1.1c6.5,9.8,10,21.3,10,33v484.8c0,11.7-3.5,23.2-10,33L845.7,608.2z
			 M532.6,331.7l312.6,273.1c5.8-9.2,8.9-19.8,8.9-30.7V89.3c0-10.9-3.1-21.4-8.9-30.7L532.6,331.7z M40.2,608.2l-0.7-1.1
			c-6.5-9.8-10-21.3-10-33V89.3c0-11.7,3.5-23.2,10-33l0.7-1.1l1,0.9l315.6,275.7l-1,0.9L40.2,608.2z M40.6,58.6
			c-5.8,9.2-8.9,19.8-8.9,30.7v484.8c0,10.9,3.1,21.5,8.9,30.7l312.6-273.1L40.6,58.6z M442.9,370.9l-0.7-0.6L60.7,37l1.5-0.8
			c8.8-4.5,17.9-6.8,27.1-6.8h707.3c9.2,0,18.3,2.3,27.1,6.8l1.5,0.8L442.9,370.9z M64.7,37.5l378.2,330.4L821.2,37.5
			c-8-3.8-16.2-5.8-24.6-5.8H89.3C80.9,31.7,72.7,33.7,64.7,37.5z"/>
	</g>
</g>
</svg>
