<?xml version="1.0" encoding="utf-8"?>
<!-- Generator: Adobe Illustrator 23.1.0, SVG Export Plug-In . SVG Version: 6.00 Build 0)  -->
<svg version="1.1" id="Capa_1" xmlns="http://www.w3.org/2000/svg" xmlns:xlink="http://www.w3.org/1999/xlink" x="0px" y="0px"
	 viewBox="0 0 1047.8 639.5" style="enable-background:new 0 0 1047.8 639.5;" xml:space="preserve">
<style type="text/css">
	.st0{fill:#034E7C;}
	.st1{fill:#F4A490;}
	.st2{fill:#FFFFFF;}
</style>
<g>
	<path class="st1" d="M2.8,537.7c-4.7-2-3-9,2.1-8.7c213.8,11.9,199.1-164.4,258.3-360.9c33-133.6,155.2-204,284.1-149.8
		c104.5,44,177.1,217.9,18.2,331.1c-4,2.9-9-1.9-6.5-6.1c46.4-76.5,20.4-174.8-64.9-186.9C324,132.4,349.7,684.9,2.8,537.7z"/>
	<path class="st1" d="M1045.1,101.8c4.7,2,3,9-2.1,8.7C829.2,98.6,843.9,274.9,784.7,471.4c-33,133.6-155.2,204-284.1,149.8
		c-104.5-44-177.1-217.9-18.2-331.1c4-2.9,9,1.9,6.5,6.1c-46.4,76.5-20.4,174.8,64.9,186.9C723.9,507.2,698.2-45.4,1045.1,101.8z"/>
</g>
</svg>
